<svg fill="none" height="40" viewBox="0 0 120 40" width="120" xmlns="http://www.w3.org/2000/svg"><path d="m110.135.00000793h-100.60032c-.3667 0-.729 0-1.09473.002-.30615.002-.60986.00781-.91895.01269997-.67149.0079018-1.34139.0669763-2.0039.1767101-.66158.112123-1.30243.323506-1.90088.627-.59772.306062-1.14387.703762-1.61865 1.178662-.47727.47356-.87511 1.02094-1.17822 1.62109-.30395.59895-.514709 1.24078-.625 1.90332-.1113391.6617-.1712516 1.33104-.1792 2.002-.00928.3066-.01026.61422-.01515.92086v23.11425c.00489.3105.00587.6113.01515.9219.0079508.6709.0678634 1.3402.1792 2.0019.109986.6629.320758 1.3051.625 1.9043.30298.5982.70087 1.1434 1.17822 1.6143.47297.477 1.01948.875 1.61865 1.1787.59845.3043 1.23923.517 1.90088.6308.66262.1089 1.33246.168 2.0039.1768.30909.0068.6128.0107.91895.0107.36572.002.72805.002 1.09473.002h100.60032c.359 0 .724 0 1.084-.002.304 0 .617-.0039.922-.0107.67-.0084 1.338-.0675 2-.1768.663-.1146 1.307-.3272 1.908-.6308.598-.3039 1.144-.7018 1.617-1.1787.476-.4728.875-1.0175 1.182-1.6143.302-.5996.51-1.2417.619-1.9043.111-.6618.173-1.3309.185-2.0019.004-.3106.004-.6114.004-.9219.008-.3633.008-.7246.008-1.0938v-20.92866c0-.36621 0-.72949-.008-1.09179 0-.30664 0-.61426-.004-.9209-.012-.67102-.074-1.34021-.185-2.002-.109-.66216-.318-1.30394-.619-1.90332-.618-1.20293-1.596-2.1821-2.799-2.799802-.601-.302753-1.245-.51408-1.908-.627-.661-.1102173-1.33-.1693123-2-.1767601-.305-.00487997-.618-.01073997-.922-.01268997-.36-.002-.725-.002-1.084-.002z" fill="#a6a6a6"/><path d="m8.44487 39.125c-.30468 0-.602-.0039-.90429-.0107-.62622-.0082-1.25098-.0627-1.86914-.1631-.57641-.0993-1.1348-.2839-1.65674-.5479-.51716-.2618-.98885-.605-1.397-1.0166-.41406-.4067-.75879-.8785-1.02051-1.3965-.26461-.5214-.44774-1.0803-.543-1.6572-.102879-.6199-.158539-1.2467-.166503-1.875-.00634-.2109-.01464-.9131-.01464-.9131v-23.10056s.00884-.69141.01469-.89454c.007626-.62732.062962-1.25315.165533-1.87207.09544-.57848.2787-1.13898.54346-1.6621.26076-.51769.60357-.98977 1.01514-1.39795.4111-.41206.8843-.75708 1.40234-1.02247.52074-.26312 1.07807-.44648 1.65332-.54394.62019-.101434 1.24712-.156274 1.87551-.16406l.90232-.01221h102.76864l.913.0127c.623.007399 1.244.06175 1.858.16259.581.09869 1.145.28333 1.671.54785 1.038.53485 1.883 1.38102 2.415 2.41993.261.51951.441 1.07544.536 1.64892.103.624.161 1.25475.173 1.88721.003.2832.003.5874.003.89014.008.375.008.73193.008 1.09179v20.92867c0 .3633 0 .7178-.008 1.0752 0 .3252 0 .6231-.004.9297-.011.6212-.068 1.2407-.171 1.8535-.093.5811-.275 1.1443-.54 1.67-.263.5124-.606.9801-1.015 1.3857-.409.4138-.881.759-1.4 1.0225-.525.266-1.087.4513-1.668.5498-.618.101-1.243.1555-1.869.1631-.293.0068-.599.0107-.897.0107l-1.084.002z" fill="#000"/><g clip-rule="evenodd" fill="#fff" fill-rule="evenodd"><path d="m74.6792 29.0761c-1.6348 0-2.8311-.8085-2.9688-2.04l-1.9023-.0001c.1201 2.2461 1.9795 3.667 4.7334 3.667 2.9433 0 4.7939-1.455 4.7939-3.7783 0-1.8164-1.0586-2.8398-3.6064-3.4424l-1.3682-.3359c-1.6006-.3955-2.2549-.9121-2.2549-1.79 0-1.1016 1.0244-1.8584 2.5215-1.8584s2.5215.748 2.6338 1.9873h1.876c-.0605-2.1426-1.8594-3.6143-4.4834-3.6143-2.6514 0-4.5185 1.4717-4.5185 3.6143 0 1.7305 1.0586 2.7969 3.3388 3.3477l1.6094.3877c1.6094.3955 2.2891.9726 2.2891 1.9365 0 1.1103-1.127 1.9189-2.6934 1.9189zm-32.377-1.9365h-4.7334l-1.1367 3.3565h-2.0049l4.4834-12.418h2.083l4.4834 12.418h-2.039zm-4.2431-1.5488h3.752l-1.8496-5.4473h-.0518zm13.3222 5c2.2725 0 3.7784-1.8076 3.7784-4.6211 0-2.8056-1.5147-4.622-3.8125-4.6221-1.1824-.0381-2.29.5769-2.8828 1.6006h-.0342v-1.5058h-1.7989v12.0488h1.8584v-4.4844h.043c.5676 1.0302 1.674 1.6455 2.8486 1.584zm1.8682-4.6211c0-1.833-.9473-3.0381-2.3926-3.0381-1.4199 0-2.375 1.2305-2.375 3.0381 0 1.8242.9551 3.0459 2.375 3.0459 1.4453 0 2.3926-1.1963 2.3926-3.0459zm8.0967 4.6211c2.2724 0 3.7783-1.8076 3.7783-4.6211 0-2.8056-1.5146-4.622-3.8125-4.622-1.1824-.0382-2.29.5768-2.8828 1.6005h-.0342v-1.5058h-1.7988v12.0488h1.8584v-4.4844h.043c.5675 1.0302 1.674 1.6455 2.8486 1.584zm1.8681-4.6211c0-1.833-.9472-3.0381-2.3925-3.0381-1.42 0-2.375 1.2305-2.375 3.0381 0 1.8242.955 3.0459 2.375 3.0459 1.4453 0 2.3926-1.1963 2.3925-3.0459zm20.1319-6.6699v2.1426h1.7217v1.4717h-1.7217v4.9912c0 .7754.3447 1.1367 1.1015 1.1367.2044-.0036.4085-.0179.6114-.043v1.4629c-.3403.0636-.6862.0923-1.0323.0859-1.833 0-2.5478-.6885-2.5478-2.4443v-5.1894h-1.3164v-1.4717h1.3164v-2.1426zm7.0127 2.0313c-2.6162 0-4.2939 1.79-4.2939 4.6386 0 2.8565 1.6611 4.6387 4.2939 4.6387 2.6338 0 4.2949-1.7822 4.2949-4.6387 0-2.8486-1.6699-4.6386-4.2949-4.6386zm2.4014 4.6386c0-1.9541-.8955-3.1074-2.4014-3.1074-1.5058 0-2.4004 1.1621-2.4004 3.1074 0 1.9619.8946 3.1065 2.4004 3.1065 1.5059 0 2.4013-1.1446 2.4013-3.1065zm5.1982-4.5273h-1.7725v9.0537h1.8584v-5.3701c-.0618-.5433.1168-1.0865.4891-1.487s.9011-.6182 1.4474-.596c.2831-.0083.5651.0296.8351.1123v-1.7383c-.209-.0469-.423-.0701-.637-.0694-1.0214-.039-1.9303.6438-2.1775 1.6358h-.043zm11.4255 6.3945c-.25 1.6436-1.85 2.7715-3.898 2.7715-2.634 0-4.269-1.7647-4.269-4.5957 0-2.8399 1.644-4.6817 4.191-4.6817 2.505 0 4.08 1.7207 4.08 4.4659v.6367h-6.395v.1123c-.059.674.173 1.3412.639 1.8319.466.4906 1.121.7574 1.797.7325.902.0845 1.752-.4333 2.091-1.2734zm-1.756-2.7021h-4.526c-.002-.6113.241-1.1979.674-1.6294s1.02-.6721 1.632-.6685c.606-.013 1.191.2275 1.612.6637.422.4362.642 1.0285.608 1.6342z"/><path d="m59.0937 8.43701h.8887v6.26079h-.8887zm-19.162 1.11187c-.5438-.57432-1.3166-.87448-2.1055-.81787h-2.1553v5.96689h2.1553c1.7773 0 2.8076-1.0958 2.8076-3.002.0995-.7847-.1582-1.5727-.7021-2.14702zm-2.2091 4.30512h-1.125v-4.27978h1.125c.5609-.03112 1.1063.19001 1.487.60288.3808.413.5572.9744.4808 1.5309.0824.5588-.0915 1.125-.4732 1.5413s-.9307.6384-1.4946.6047zm3.9581-1.4096c0-.7922.3098-1.5883.9987-2.0158s1.5607-.4275 2.2496 0 .9987 1.2588.9987 2.0158c0 .8446-.308 1.5906-.9975 2.019s-1.5625.4284-2.252 0c-.6896-.4284-.9975-1.1679-.9975-2.019zm2.125-1.5469c.7695 0 1.208.5708 1.208 1.5469 0 .9799-.4385 1.5502-1.208 1.5503-.7725 0-1.207-.5664-1.207-1.5503 0-.9761.4345-1.5469 1.207-1.5469zm7.7675 3.8003h-.9218l-.9307-3.3164h-.0703l-.9268 3.3164h-.9131l-1.2412-4.503h.9014l.8066 3.436h.0665l.9257-3.436h.8526l.9258 3.436h.0703l.8027-3.436h.8887zm3.1358-4.503h-.8555v4.503h.8887v-2.6343c-.0319-.2997.0687-.5983.2753-.8177.2067-.2193.4988-.3374.7999-.3234.6572 0 .9717.3598.9717 1.0835v2.6918h.8886v-2.915c0-.4249-.0734-.8863-.3766-1.2121s-.7381-.4961-1.182-.4627c-.5732-.0466-1.1128.2756-1.3437.8023h-.0664zm9.7574.2337c-.689-.4275-1.5607-.4275-2.2497 0-.689.4276-.9989 1.1303-.9989 2.0159 0 .8082.3081 1.5906.9977 2.019s1.5625.4284 2.2521 0 .9977-1.1855.9977-2.019c0-.8581-.3099-1.5883-.9989-2.0159zm.0844 2.0159c0-.9761-.4385-1.5469-1.208-1.5469-.7725 0-1.207.5708-1.207 1.5469 0 .9839.4345 1.5503 1.207 1.5503.7695-.0001 1.208-.5704 1.208-1.5503zm4.7446-.4346-1.2197.0703c-1.0713.0664-1.6748.5337-1.6748 1.3442.0015.3844.1655.7501.4515 1.0069.2859.2567.6476.3408 1.0495.3408.5575 0 1.0619-.2449 1.3525-.707h.0703v.6328h.8555v-3.0767c0-.9512-.6367-1.5132-1.7656-1.5132-1.0215 0-1.7491.4961-1.8399 1.2696h.8604c.0986-.3184.4423-.5005.9384-.5005.6075 0 .9219.2685.9219.7441zm0 1.0298v-.3765l-1.0996.0703c-.6201.0415-.9014.2525-.9014.6494 0 .4053.3516.6411.835.6411.2862.029.5719-.0594.7917-.245.2198-.1855.3549-.4523.3743-.7393zm3.9219-2.9195c-1.1377 0-1.8692.9014-1.8692 2.3243 0 1.4262.7237 2.3276 1.8692 2.3276.5807.0214 1.1254-.2813 1.414-.7857h.0704v.7115h.8515v-6.26079h-.8887v2.47309h-.0664c-.2683-.5086-.8063-.8164-1.3808-.79zm-.9512 2.3243c0 .955.4502 1.5297 1.2032 1.5297.749 0 1.2119-.583 1.2119-1.5258 0-.9385-.4678-1.5298-1.2119-1.5298-.7481 0-1.2032.5786-1.2032 1.5259zm10.2122-2.0158c-.6889-.4275-1.5607-.4275-2.2496 0s-.9987 1.2467-.9987 2.0158c0 .8296.308 1.5906.9975 2.019s1.5625.4284 2.252 0c.6896-.4284.9975-1.1856.9975-2.019 0-.7539-.3098-1.5883-.9987-2.0158zm.0847 2.0158c0-.9761-.4385-1.5469-1.208-1.5469-.7725 0-1.207.5708-1.207 1.5469 0 .9839.4346 1.5503 1.207 1.5503.7695-.0001 1.208-.5704 1.208-1.5503zm2.9619-2.2496h-.8555v4.503h.8887v-2.6343c-.0319-.2997.0687-.5983.2754-.8177.2066-.2193.4988-.3374.7998-.3234.6572 0 .9717.3598.9717 1.0835v2.6918h.8886v-2.915c.0652-.4403-.0734-.8863-.3766-1.2121s-.7381-.4961-1.1819-.4627c-.5732-.0466-1.1129.2756-1.3438.8023h-.0664zm7.9902-1.12106v1.14156h.9756v.7486h-.9756v2.3154c0 .4717.1944.6782.6368.6782.1132-.0003.2264-.0072.3388-.0205v.7403c-.1596.0285-.3213.0437-.4834.0454-.9883 0-1.3818-.3477-1.3818-1.2159v-2.543h-.7149v-.7485h.7149v-1.14156zm3.0703-.63673h-.8808v6.26069h.8887v-2.6298c-.0275-.309.0828-.6144.3014-.8345s.5232-.3325.8324-.3071c.6279 0 .9629.3642.9629 1.0835v2.688h.8895v-2.9073c.0589-.438-.0806-.8794-.3805-1.2041-.2999-.3246-.7289-.4986-1.1702-.4746-.5819-.0472-1.131.2754-1.373.8067h-.0704zm8.1756 5.04489c-.249.8494-1.071 1.3982-1.951 1.3028-.6.0158-1.177-.2331-1.578-.6806-.401-.4476-.584-1.0486-.502-1.6436-.08-.5967.103-1.1987.501-1.65.399-.4514.973-.7077 1.575-.7026 1.253 0 2.009.856 2.009 2.27v.3101h-3.18v.0498c-.028.3342.086.6647.315.9103.228.2455.549.3834.884.3797.435.0522.858-.1635 1.072-.5459zm-.851-1.4511h-2.275c-.004-.3105.118-.6095.337-.8291.22-.2197.519-.3413.829-.3374.307-.0071.602.1156.813.3378.211.2221.318.5231.296.8287z"/><path d="m23.1518 8.72028c.0968 1.26423-.303 2.51642-1.1146 3.49062-.7873.9793-1.9803 1.5433-3.2367 1.5304-.0799-1.2279.3315-2.4371 1.1437-3.3614.8225-.93684 1.9677-1.5294 3.2076-1.65962zm3.9736 7.42832c-1.4453.8886-2.3347 2.4556-2.3565 4.1521.002 1.9193 1.1515 3.6515 2.9192 4.3992-.34 1.1044-.8524 2.1481-1.5184 3.0925-.8944 1.3379-1.8321 2.6449-3.3205 2.6691-.7079.0163-1.1857-.1872-1.6836-.3993-.5194-.2213-1.0605-.4518-1.9074-.4518-.8982 0-1.4636.238-2.0089.4675-.4713.1983-.9275.3903-1.5705.417-1.4175.0525-2.5007-1.428-3.4276-2.7533-1.8527-2.7066-3.29525-7.6277-1.3612-10.9761.9081-1.632 2.6062-2.6676 4.4729-2.7279.8039-.0165 1.5753.2933 2.2516.565.5173.2078.9789.3932 1.3569.3932.3323 0 .781-.1781 1.3039-.3857.8238-.3269 1.8318-.727 2.859-.6192 1.5961.05 3.0752.8496 3.9911 2.1577z"/></g></svg>