<svg fill="none" height="34" viewBox="0 0 40 34" width="40" xmlns="http://www.w3.org/2000/svg"><g clip-rule="evenodd" fill="#00003b" fill-rule="evenodd"><path d="m23.1198 15.1973s.746 1.415 2.7792 1.415c2.2526 0 3.8909-1.7214 3.8909-4.4784 0-2.509-1.492-4.46371-3.9055-4.46371-2.004 0-2.7792 1.41497-2.7792 1.41497h-.117v-4.47833l-2.4428.01459v11.77198h2.3258l.1316-1.1961zm4.1103-3.078c0 1.1962-.7021 2.1736-2.0186 2.1736-1.3018 0-2.0332-.9628-2.0332-2.1736 0-1.1815.7314-2.17348 2.0332-2.17348 1.3165 0 2.0186.99198 2.0186 2.17348zm7.9134 4.493c-2.7353 0-4.4321-1.9256-4.4321-4.4492 0-2.1006 1.1995-4.49291 4.4175-4.49291 3.7885 0 4.3443 3.39881 4.3443 4.59501v.5397h-6.202c.0439 1.0941.7752 1.7797 1.9016 1.7797.8776 0 1.4481-.3939 1.6967-1.0065h2.5159c-.4973 1.8818-2.0917 3.0342-4.2419 3.0342zm1.7846-5.4266h-3.6569c0-.919.746-1.63374 1.8431-1.63374 1.0093 0 1.8138.65644 1.8138 1.63374z"/><path d="m2.8744 11.1257-.80623 6.1901h7.60666c4.66217 0 6.20447-2.2732 6.20447-4.9311 0-2.58798-1.4372-4.61639-3.8559-5.28087.2805 2.02841-.5258 4.02187-3.5404 4.02187zm-1.61247 12.8699-1.26193 9.3377h11.9183c5.6787 0 8.9036-3.4972 8.9036-7.7639 0-3.7421-2.629-6.8896-6.1344-7.624.8413 3.0426-.631 6.0502-5.39826 6.0502z"/></g></svg>