<svg fill="none" height="40" viewBox="0 0 135 40" width="135" xmlns="http://www.w3.org/2000/svg" xmlns:xlink="http://www.w3.org/1999/xlink"><linearGradient id="a" gradientUnits="userSpaceOnUse" x1="17.4733" x2="-2.36617" y1="-7.559" y2="-2.28266"><stop offset="0" stop-color="#00a0ff"/><stop offset=".01" stop-color="#00a1ff"/><stop offset=".26" stop-color="#00beff"/><stop offset=".51" stop-color="#00d2ff"/><stop offset=".76" stop-color="#00dfff"/><stop offset="1" stop-color="#00e3ff"/></linearGradient><linearGradient id="b" gradientUnits="userSpaceOnUse" x1="33.83" x2="9.64003" y1="9.79966" y2="9.79966"><stop offset="0" stop-color="#ffe000"/><stop offset=".41" stop-color="#ffbd00"/><stop offset=".78" stop-color="#ffa500"/><stop offset="1" stop-color="#ff9c00"/></linearGradient><linearGradient id="c" gradientUnits="userSpaceOnUse" x1="10.0738" x2="-5.86261" y1="13.5275" y2="40.3341"><stop offset="0" stop-color="#ff3a44"/><stop offset="1" stop-color="#c31162"/></linearGradient><linearGradient id="d" gradientUnits="userSpaceOnUse" x1=".70995" x2="7.82324" y1="4.09599" y2="16.0665"><stop offset="0" stop-color="#32a071"/><stop offset=".07" stop-color="#2da771"/><stop offset=".48" stop-color="#15cf74"/><stop offset=".8" stop-color="#06e775"/><stop offset="1" stop-color="#00f076"/></linearGradient><rect fill="#000" height="40" rx="5" width="135"/><g clip-rule="evenodd" fill-rule="evenodd"><path d="m5 0h125c2.761 0 5 2.23858 5 5v30c0 2.7614-2.239 5-5 5h-125c-2.76142 0-5-2.2386-5-5v-30c0-2.76142 2.23858-5 5-5zm129.2 5c0-2.3196-1.88-4.2-4.2-4.2h-125c-2.3196 0-4.2 1.8804-4.2 4.2v30c0 2.3196 1.8804 4.2 4.2 4.2h125c2.32 0 4.2-1.8804 4.2-4.2z" fill="#a6a6a6"/><path d="m47.74 23.06v1.8h4.32c-.0678.8478-.4202 1.6478-1 2.27-.874.8902-2.0835 1.3697-3.33 1.32-2.651 0-4.8-2.149-4.8-4.8s2.149-4.8 4.8-4.8c1.2178-.0198 2.3937.4441 3.27 1.29l1.27-1.27c-1.1951-1.2101-2.8293-1.8847-4.53-1.87-2.4211-.0942-4.6996 1.1437-5.9382 3.2261-1.2385 2.0824-1.2385 4.6755 0 6.7579 1.2386 2.0823 3.5171 3.3202 5.9382 3.226 1.7317.0783 3.4127-.5963 4.61-1.85 1.0477-1.1511 1.607-2.6642 1.56-4.22.0032-.379-.0303-.7574-.1-1.13zm11.09-1.31c-2.3459.0055-4.2437 1.9108-4.24 4.2567s1.9074 4.2451 4.2533 4.2433 4.2467-1.9041 4.2467-4.25c.0164-1.1356-.4288-2.2293-1.2338-3.0305-.8049-.8012-1.9007-1.2413-3.0362-1.2195zm5.08 4.2633c-.0074-2.3446 1.8854-4.2523 4.23-4.2633 1.1355-.0218 2.2313.4183 3.0362 1.2195.805.8012 1.2502 1.8949 1.2338 3.0305-.0001 2.3446-1.8988 4.2463-4.2434 4.25-2.3446.0036-4.2493-1.8921-4.2566-4.2367zm1.722 1.1052c.4566.9558 1.4512 1.5354 2.508 1.4615.6633-.0154 1.2922-.298 1.7441-.7838s.6884-1.1335.6559-1.7962c-.0026-1.0593-.6525-2.0095-1.6388-2.3959-.9864-.3865-2.1087-.1307-2.8303.645-.7215.7756-.8956 1.9135-.4389 2.8694zm-9.3167.0076c.4599.9553 1.4573 1.532 2.5147 1.4539h-.01c.6633-.0154 1.2922-.298 1.7441-.7838s.6884-1.1335.6559-1.7962c-.0029-1.0602-.6541-2.0107-1.6417-2.3963s-2.1105-.1278-2.831.65-.8918 1.9171-.432 2.8724zm33.0947-5.3761c1.6579.0611 3.1061 1.1392 3.64 2.71l.21.45-5.69 2.35c.3566.8122 1.1736 1.3238 2.06 1.29.8558.0022 1.6497-.446 2.09-1.18l1.45 1c-.7894 1.1815-2.1192 1.8877-3.54 1.88-1.1295.0166-2.2171-.4269-3.013-1.2284-.7959-.8016-1.2316-1.8923-1.207-3.0216-.0691-1.1035.3216-2.1863 1.0794-2.9915.7577-.8051 1.8149-1.2606 2.9206-1.2585zm-2.16 4.13c-.041-.6248.1713-1.2398.5889-1.7064.4177-.4665 1.0055-.7454 1.6311-.7736.6593-.0434 1.281.3107 1.58.9zm-2.75 4.12h-1.87v-12.5h1.87zm-4.93-7.3h-.07c-.5701-.6373-1.385-1.0011-2.24-1-2.2699.1101-4.0537 1.9825-4.0537 4.255s1.7838 4.1449 4.0537 4.255c.8578.0144 1.678-.3517 2.24-1h.06v.61c0 1.63-.87 2.5-2.27 2.5-.9537-.0223-1.7993-.619-2.14-1.51l-1.63.68c.6277 1.5268 2.1192 2.5199 3.77 2.51 2.19 0 4-1.29 4-4.43v-7.57h-1.72zm-2.1431 5.8797.0031.0003h-.01zm1.685-.8019c-.4291.4856-1.0377.7752-1.685.8019-1.3356-.1193-2.3595-1.2384-2.3595-2.5797 0-1.3423 1.0255-2.4621 2.3626-2.58.6461.0332 1.2515.3258 1.6788.8115.4274.4857.6405 1.1234.5912 1.7685.0551.6481-.1574 1.2904-.5881 1.7778zm22.6981-10.2778h-4.47v12.5h1.87v-4.74h2.61c1.453.1044 2.842-.6115 3.6-1.855s.758-2.8064 0-4.05c-.758-1.2435-2.147-1.9593-3.6-1.855zm-2.61 6h2.61l.04.03c1.185 0 2.145-.9603 2.145-2.145 0-1.1846-.96-2.145-2.145-2.145h-2.65zm14.14-1.8c-1.391-.0831-2.699.6671-3.33 1.91l1.66.69c.334-.6163 1.001-.9771 1.7-.92.48-.056.961.083 1.338.3857.376.3028.614.7439.662 1.2243v.13c-.601-.318-1.27-.4829-1.95-.48-1.79 0-3.6 1-3.6 2.81.036.7797.385 1.5118.969 2.0298s1.353.7777 2.131.7202c.959.0689 1.88-.3913 2.4-1.2h.06v1h1.8v-4.81c0-2.19-1.66-3.46-3.79-3.46zm-1.69 5.79c0 .75.85 1.06 1.46 1.06l.05.03c1.126-.0274 2.061-.8806 2.19-2-.519-.2896-1.106-.4346-1.7-.42-.94 0-2 .33-2 1.33zm12.09-5.49-2.14 5.42h-.06l-2.22-5.42h-2l3.33 7.58-1.9 4.21h1.95l5.12-11.79zm-14.94 8h-1.87v-12.5h1.87z" fill="#fff"/><path d="m69.21 7.76997c-1.1797 1.24877-1.1797 3.20123 0 4.45003 1.2171 1.2102 3.183 1.2102 4.4 0 1.1848-1.2468 1.1848-3.20327 0-4.45003-.582-.58625-1.3739-.91597-2.2-.91597-.826 0-1.618.32972-2.2.91597zm-22.54 4.47003c.5133-.5359.7844-1.2588.75-2 .0001-.1509-.0133-.30151-.04-.45003h-2.91v.72003h2.17c-.0148.4535-.1922.8865-.5 1.22-.6854.6625-1.7021.8476-2.577.4692-.875-.3784-1.4364-1.246-1.423-2.19923-.0217-.63078.2144-1.24321.6541-1.69606.4396-.45285 1.0448-.70704 1.6759-.70394.6279-.03431 1.2354.22868 1.64.71l.53-.53c-.256-.29444-.5781-.52405-.94-.67-.3886-.16633-.8072-.25141-1.23-.25-.8294-.01848-1.6294.30733-2.21.9-.8934.89932-1.1607 2.24663-.6783 3.41893.4825 1.1723 1.6207 1.9411 2.8883 1.9511.8265.0294 1.6265-.2942 2.2-.89zm2.63-4.50003h2.7v-.74h-3.5v6.00003h3.5v-.74h-2.7v-1.9h2.46v-.72003h-2.46zm5.98 5.26003h-.77v-5.26003h-1.68v-.74h4.17v.74h-1.72zm5.43-6.00003h-.77v6.00003h.77zm3.42 6.00003h-.77v-5.26003h-1.68v-.74h4.12v.74h-1.67zm12.39-6.00003h-.94v6.00003h.78v-4.89003l3.05 4.89003h.8v-6.00003h-.77v4.67003zm-6.74 4.72003c.9014.8975 2.3587.8975 3.26 0 .8852-.9759.8852-2.4642 0-3.44003-.9013-.89756-2.3586-.89756-3.26 0-.8852.97583-.8852 2.46413 0 3.44003z" fill="#fff"/></g><path d="m69.21 12.22-.0727.0687.0022.0022zm0-4.45003-.0709-.07047-.0017.0018zm4.4 4.45003.0706.0709.0019-.002zm0-4.45003.0725-.0689-.0015-.00155zm-26.19 2.47003-.1001-.0001.0002.0047zm-.75 2 .0721.0693.0002-.0002zm.71-2.45003.0985-.01768-.0148-.08232h-.0837zm-2.91 0v-.1h-.1v.1zm0 .72003h-.1v.1h.1zm2.17 0 .1.0032.0034-.1032h-.1034zm-.5 1.22.0697.072.0038-.0042zm-2.577.4692-.0397.0918zm-1.423-2.19923.1001.00143-.0001-.00488zm.6541-1.69606-.0718-.06966zm1.6759-.70394-.0004.10018.0059-.00033zm1.64.71-.0765.06435.0702.08346.0771-.0771zm.53-.53.0708.07071.0659-.06594-.0612-.07038zm-.94-.67-.0393.09196.0019.00078zm-1.23-.25-.0022.10001.0026-.00001zm-2.21.9.071.07048.0005-.0005zm-.6783 3.41893-.0924.038zm2.8883 1.9511.0036-.1h-.0028zm7.53-5.39003v.1h.1v-.1zm-2.7 0v-.1h-.1v.1zm2.7-.74h.1v-.1h-.1zm-3.5 0v-.1h-.1v.1zm0 6.00003h-.1v.1h.1zm3.5 0v.1h.1v-.1zm0-.74h.1v-.1h-.1zm-2.7 0h-.1v.1h.1zm0-1.9v-.1h-.1v.1zm2.46 0v.1h.1v-.1zm0-.72003h.1v-.1h-.1zm-2.46 0h-.1v.1h.1zm5.21 3.36003h-.1v.1h.1zm.77 0v.1h.1v-.1zm-.77-5.26003h.1v-.1h-.1zm-1.68 0h-.1v.1h.1zm0-.74v-.1h-.1v.1zm4.17 0h.1v-.1h-.1zm0 .74v.1h.1v-.1zm-1.72 0v-.1h-.1v.1zm4.66-.74v-.1h-.1v.1zm.77 0h.1v-.1h-.1zm-.77 6.00003h-.1v.1h.1zm.77 0v.1h.1v-.1zm2.65 0h-.1v.1h.1zm.77 0v.1h.1v-.1zm-.77-5.26003h.1v-.1h-.1zm-1.68 0h-.1v.1h.1zm0-.74v-.1h-.1v.1zm4.12 0h.1v-.1h-.1zm0 .74v.1h.1v-.1zm-1.67 0v-.1h-.1v.1zm11.45-.74v-.1h-.1v.1zm.94 0 .0848-.05302-.0293-.04698h-.0555zm-.94 6.00003h-.1v.1h.1zm.78 0v.1h.1v-.1zm0-4.89003.0849-.05292-.1849-.29636v.34928zm3.05 4.89003-.0848.0529.0294.0471h.0554zm.8 0v.1h.1v-.1zm0-6.00003h.1v-.1h-.1zm-.77 0v-.1h-.1v.1zm0 4.67003-.0847.053.1847.2955v-.3485zm-6.4.05.0707.0709.0034-.0037zm-3.26 0-.0741.0672.0036.0036zm3.26-3.44003.0742-.06727-.0036-.00359zm-3.26 0-.0706-.07095-.0034.00376zm-.4973 3.87133c-1.1433-1.2102-1.1433-3.10243 0-4.31266l-.1453-.13734c-1.2162 1.28731-1.2162 3.3 0 4.5873zm4.2568-.0022c-1.178 1.1714-3.0809 1.1714-4.2589 0l-.1411.1418c1.256 1.249 3.285 1.249 4.5411 0zm-.0019-4.31024c1.148 1.20816 1.148 3.10404 0 4.31224l.1449.1378c1.2215-1.2854 1.2215-3.30246 0-4.58781zm-2.1276-.88486c.7995 0 1.5658.31908 2.1291.88642l.1419-.1409c-.6008-.60517-1.4182-.94552-2.271-.94552zm-2.129.88642c.5632-.56734 1.3296-.88642 2.129-.88642v-.2c-.8527 0-1.6702.34035-2.2709.94552zm-21.9609 2.40418c.0331.7139-.2279 1.4101-.7223 1.9262l.1445.1383c.5322-.5556.8133-1.3052.7776-2.0738zm-.0385-.43695c.0256.14267.0385.28735.0384.43225l.2.0001c.0001-.1568-.0138-.31334-.0415-.46771zm-2.8116.08232h2.91v-.2h-2.91zm.1.62003v-.72003h-.2v.72003zm2.07-.1h-2.17v.2h2.17zm-.4265 1.3878c.324-.3511.5109-.8071.5265-1.2846l-.1999-.0065c-.014.4295-.1821.8396-.4735 1.1555zm-2.6902.4932c.912.3945 1.9718.2015 2.6862-.4891l-.139-.1438c-.6563.6344-1.6299.8117-2.4678.4493zm-1.4832-2.29243c-.014.99353.5711 1.89803 1.4832 2.29243l.0794-.1836c-.8379-.3623-1.3755-1.1932-1.3627-2.106zm.6822-1.76432c-.4586.47237-.7049 1.1112-.6822 1.76915l.1999-.00688c-.0209-.60359.2051-1.18962.6258-1.62295zm1.7482-.73428c-.6583-.00323-1.2896.26191-1.7482.73428l.1435.13932c.4207-.43334.9998-.67656 1.6038-.6736zm1.7161.74565c-.4249-.50539-1.0627-.78153-1.722-.7455l.0109.1997c.5965-.03259 1.1736.21724 1.558.6745zm.3827-.53636-.53.53.1415.14142.53-.53zm-.9067-.50655c.3472.14005.6563.36035.902.64288l.1509-.13123c-.2664-.30637-.6015-.54527-.9781-.69713zm-1.1922-.24274c.4091-.00136.8142.08097 1.1903.24194l.0787-.18387c-.4012-.1717-.8333-.25952-1.2697-.25807zm-2.1389.86998c.5612-.57292 1.3345-.88787 2.1363-.87l.0045-.19995c-.8571-.0191-1.6838.31757-2.2837.93zm-.6573 3.31085c-.4671-1.1351-.2083-2.43958.6568-3.31035l-.1419-.14096c-.9218.92787-1.1976 2.31791-.6998 3.52741zm2.7966 1.8892c-1.2274-.0096-2.3295-.7541-2.7966-1.8892l-.1849.0761c.4977 1.2096 1.6721 2.0028 2.98 2.0131zm2.1272-.8594c-.5538.5753-1.3263.8878-2.1244.8594l-.0071.1999c.8549.0304 1.6823-.3043 2.2756-.9206zm5.402-4.53063h-2.7v.2h2.7zm-.1-.64v.74h.2v-.74zm-3.4.1h3.5v-.2h-3.5zm.1 5.90003v-6.00003h-.2v6.00003zm3.4-.1h-3.5v.2h3.5zm-.1-.64v.74h.2v-.74zm-2.6.1h2.7v-.2h-2.7zm-.1-2v1.9h.2v-1.9zm2.56-.1h-2.46v.2h2.46zm-.1-.62003v.72003h.2v-.72003zm-2.36.1h2.46v-.2h-2.46zm-.1-2v1.9h.2v-1.9zm5.31 5.36003h.77v-.2h-.77zm-.1-5.36003v5.26003h.2v-5.26003zm-1.58.1h1.68v-.2h-1.68zm-.1-.84v.74h.2v-.74zm4.27-.1h-4.17v.2h4.17zm.1.84v-.74h-.2v.74zm-1.82.1h1.72v-.2h-1.72zm.1 5.16003v-5.26003h-.2v5.26003zm4.56-5.90003h.77v-.2h-.77zm.1 5.90003v-6.00003h-.2v6.00003zm.67-.1h-.77v.2h.77zm-.1-5.90003v6.00003h.2v-6.00003zm2.75 6.10003h.77v-.2h-.77zm-.1-5.36003v5.26003h.2v-5.26003zm-1.58.1h1.68v-.2h-1.68zm-.1-.84v.74h.2v-.74zm4.22-.1h-4.12v.2h4.12zm.1.84v-.74h-.2v.74zm-1.77.1h1.67v-.2h-1.67zm.1 5.16003v-5.26003h-.2v5.26003zm11.35-5.90003h.94v-.2h-.94zm.1 5.90003v-6.00003h-.2v6.00003zm.68-.1h-.78v.2h.78zm-.1-4.79003v4.89003h.2v-4.89003zm3.2349 4.83703-3.05-4.88995-.1697.10584 3.05 4.89001zm.7151-.047h-.8v.2h.8zm-.1-5.90003v6.00003h.2v-6.00003zm-.67.1h.77v-.2h-.77zm.1 4.57003v-4.67003h-.2v4.67003zm-3.1048-4.61701 2.9201 4.67001.1695-.106-2.92-4.67005zm-3.4657 4.59611c-.8623.8587-2.2566.8587-3.1189 0l-.1411.1417c.9403.9365 2.4608.9365 3.4011 0zm-.0035-3.30194c.8506.93771.8506 2.36794 0 3.30564l.1481.1344c.9198-1.014.9198-2.56047 0-3.57442zm-3.1154.00367c.8623-.85871 2.2566-.85871 3.1189 0l.1411-.14172c-.9403-.93642-2.4608-.93642-3.4011 0zm.0035 3.30197c-.8506-.9377-.8506-2.36793 0-3.30564l-.1481-.13438c-.9198 1.01395-.9198 2.56042 0 3.57442z" fill="#fff"/><path d="m10.44 7.53997c-.3259.39111-.49042.8918-.45998 1.4v22.12003c-.03044.5082.13408 1.0089.45998 1.4l.07.07 12.39-12.38v-.29l-12.39-12.39003z" fill="url(#a)"/><path d="m27 24.28-4.1-4.13v-.29l4.1-4.14.09.05 4.91 2.79c1.4.79 1.4 2.09 0 2.89l-4.89 2.78z" fill="url(#b)"/><path d="m27.1199 24.22-4.22-4.22-12.46 12.46c.5888.5175 1.4625.5427 2.08.06l14.61-8.3" fill="url(#c)"/><path d="m27.1199 15.78-14.61-8.30001c-.6175-.48273-1.4913-.45752-2.08.06l12.47 12.46001z" fill="url(#d)"/><path d="m26.9999 24.13-14.49 8.25c-.5929.4433-1.407.4433-2 0l-.07.07.07.07c.5919.4467 1.4082.4467 2 0l14.61-8.3z" fill="#000" opacity=".2"/><path clip-rule="evenodd" d="m27 24.13 5-2.83c.5167-.255.8861-.7352 1-1.3-.0515.6244-.4329 1.1736-1 1.44l-4.91 2.78zm-17.02215 6.9847c.01651.4399.17795.8643.46215 1.2053l.07.08-.07.07c-.3164-.3796-.48064-.8625-.46215-1.3553zm0 0c.00056-.0149.00128-.0298.00217-.0447v-.15c-.0039.0651-.0046.13-.00217.1947z" fill="#000" fill-rule="evenodd" opacity=".12"/><path d="m12.51 7.62 19.49 11.08c.5167.255.886.7352 1 1.3-.0516-.6244-.433-1.1736-1-1.44l-19.49-11.08c-1.4-.79-2.54003-.13-2.54003 1.47v.15c.03-1.61 1.15003-2.27 2.54003-1.48z" fill="#fff" opacity=".25"/></svg>