<svg fill="none" height="22" viewBox="0 0 30 22" width="30" xmlns="http://www.w3.org/2000/svg"><path clip-rule="evenodd" d="m28.5078 1.64914c.8995.91039 1.1926 2.97773 1.1926 2.97773s.2996 2.4277.2996 4.8554v2.27603c0 2.4276-.2996 4.8553-.2996 4.8553s-.2931 2.0674-1.1926 2.9778c-1.0284 1.0772-2.1689 1.1881-2.8133 1.2507-.0704.0069-.1348.0131-.1926.02-4.1981.3035-10.5019.313-10.5019.313s-7.79983-.0713-10.19989-.3014c-.11411-.0214-.25251-.038-.40926-.0569-.76037-.0914-1.9525-.2348-2.89866-1.2254-.899465-.9104-1.192165-2.9778-1.192165-2.9778s-.300025-2.4277-.300025-4.8553v-2.27603c0-2.4277.300019-4.8554.300019-4.8554s.2927-2.06734 1.192171-2.97773c1.02885-1.077244 2.1691-1.188109 2.81337-1.25075.07035-.00684.13479-.013106.19253-.019992 4.19821-.3034621 10.49541-.3034621 10.49541-.3034621h.013s6.2973 0 10.4954.3034621c.0578.006888.1222.013155.1926.019997.6443.062642 1.7849.173529 2.8133 1.250745zm-16.6063 4.43797.0014 8.42919 8.1047-4.1999z" fill="#00003b" fill-rule="evenodd"/></svg>